<?xml version="1.0" encoding="UTF-8"?>
<svg version="1.2" baseProfile="tiny-ps" xmlns="http://www.w3.org/2000/svg" viewBox="0 0 566.93 566.93">
  <title>Remark</title>
  <rect x="0" y="0" width="566.93" height="566.93" fill="#0A0A0A"/>
  <path fill="#FFFFFF" d="M187.45,190.09h56.03l2.03,23.95c4.87-6.5,11.57-12.72,20.09-18.67c8.53-5.95,19.55-8.93,33.09-8.93c5.13,0,9.54,0.27,13.2,0.81c3.66,0.55,7.24,1.49,10.76,2.84l-9.34,51.56c-5.96-1.89-12.99-2.84-21.11-2.84c-13.8,0-24.97,4.13-33.49,12.38c-8.53,8.26-12.79,19.96-12.79,35.12v94.19h-58.46V190.09z"/>
  <path fill="#F79524" d="M313.3,315.94h66.17v64.55H313.3L313.3,315.94L313.3,315.94z"/>
</svg>
